name C:\Users\antoi\Documents\MyRepositories\upper-imu-dc\Results\main_tracking\Case_69\FLX01_angularVelocities_groundFrame.mot
datacolumns 4
datarows 141
range 3.51000000 4.91000000
endheader 
time	radius_imu_x	radius_imu_y	radius_imu_z	
          3.51000000	         -0.01110244	         -0.05984827	         -0.10054257	
          3.52000000	         -0.00582396	         -0.05967633	         -0.09972956	
          3.53000000	         -0.00035933	         -0.05980684	         -0.09831752	
          3.54000000	          0.00510738	         -0.06035431	         -0.09639666	
          3.55000000	          0.01039235	         -0.06141258	         -0.09407305	
          3.56000000	          0.01534130	         -0.06300284	         -0.09144711	
          3.57000000	          0.01984551	         -0.06502791	         -0.08859842	
          3.58000000	          0.02383333	         -0.06731759	         -0.08561222	
          3.59000000	          0.02728471	         -0.06966160	         -0.08257740	
          3.60000000	          0.03023388	         -0.07176341	         -0.07956317	
          3.61000000	          0.03275462	         -0.07328855	         -0.07663937	
          3.62000000	          0.03495214	         -0.07388373	         -0.07387720	
          3.63000000	          0.03695078	         -0.07320747	         -0.07135506	
          3.64000000	          0.03888069	         -0.07095636	         -0.06916310	
          3.65000000	          0.04086633	         -0.06688527	         -0.06740554	
          3.66000000	          0.04301667	         -0.06081965	         -0.06620084	
          3.67000000	          0.04541761	         -0.05266026	         -0.06567972	
          3.68000000	          0.04812725	         -0.04238345	         -0.06598184	
          3.69000000	          0.05117389	         -0.03003842	         -0.06725122	
          3.70000000	          0.05455669	         -0.01574181	         -0.06963040	
          3.71000000	          0.05824862	          0.00032870	         -0.07325476	
          3.72000000	          0.06220023	          0.01794252	         -0.07824674	
          3.73000000	          0.06634328	          0.03682444	         -0.08471153	
          3.74000000	          0.07059432	          0.05666437	         -0.09273396	
          3.75000000	          0.07485798	          0.07713177	         -0.10237544	
          3.76000000	          0.07903078	          0.09789616	         -0.11367058	
          3.77000000	          0.08300549	          0.11865071	         -0.12662433	
          3.78000000	          0.08667575	          0.13913315	         -0.14121106	
          3.79000000	          0.08994020	          0.15913767	         -0.15737710	
          3.80000000	          0.09270573	          0.17851684	         -0.17504631	
          3.81000000	          0.09488971	          0.19717693	         -0.19412723	
          3.82000000	          0.09642158	          0.21507201	         -0.21451967	
          3.83000000	          0.09724488	          0.23220100	         -0.23611949	
          3.84000000	          0.09731994	          0.24860818	         -0.25882123	
          3.85000000	          0.09662713	          0.26438404	         -0.28251943	
          3.86000000	          0.09516919	          0.27966079	         -0.30711018	
          3.87000000	          0.09297173	          0.29460153	         -0.33249326	
          3.88000000	          0.09008218	          0.30938432	         -0.35857481	
          3.89000000	          0.08656819	          0.32418514	         -0.38527020	
          3.90000000	          0.08251565	          0.33916293	         -0.41250636	
          3.91000000	          0.07802709	          0.35445006	         -0.44022365	
          3.92000000	          0.07322080	          0.37015088	         -0.46837642	
          3.93000000	          0.06823151	          0.38634828	         -0.49693196	
          3.94000000	          0.06321169	          0.40311448	         -0.52586782	
          3.95000000	          0.05833218	          0.42051678	         -0.55516941	
          3.96000000	          0.05378236	          0.43862233	         -0.58482448	
          3.97000000	          0.04976311	          0.45747725	         -0.61482603	
          3.98000000	          0.04647966	          0.47710508	         -0.64516404	
          3.99000000	          0.04413215	          0.49748868	         -0.67582136	
          4.00000000	          0.04289710	          0.51851444	         -0.70678893	
          4.01000000	          0.04292068	          0.53999940	         -0.73804696	
          4.02000000	          0.04431252	          0.56170597	         -0.76955420	
          4.03000000	          0.04714023	          0.58334083	         -0.80124829	
          4.04000000	          0.05143584	          0.60459638	         -0.83303187	
          4.05000000	          0.05720437	          0.62518366	         -0.86476597	
          4.06000000	          0.06443808	          0.64486938	         -0.89626427	
          4.07000000	          0.07313288	          0.66350879	         -0.92729047	
          4.08000000	          0.08330270	          0.68106728	         -0.95756047	
          4.09000000	          0.09498917	          0.69762423	         -0.98675213	
          4.10000000	          0.10826302	          0.71335522	         -1.01452331	
          4.11000000	          0.12321807	          0.72849899	         -1.04053484	
          4.12000000	          0.13995861	          0.74331148	         -1.06447715	
          4.13000000	          0.15858273	          0.75801721	         -1.08609592	
          4.14000000	          0.17916512	          0.77276804	         -1.10521292	
          4.15000000	          0.20174188	          0.78761508	         -1.12173962	
          4.16000000	          0.22629711	          0.80249316	         -1.13568350	
          4.17000000	          0.25274941	          0.81721256	         -1.14714800	
          4.18000000	          0.28093662	          0.83145450	         -1.15632797	
          4.19000000	          0.31060035	          0.84477252	         -1.16350094	
          4.20000000	          0.34137477	          0.85660673	         -1.16901400	
          4.21000000	          0.37278482	          0.86631591	         -1.17326571	
          4.22000000	          0.40425628	          0.87322561	         -1.17668370	
          4.23000000	          0.43513855	          0.87668653	         -1.17969921	
          4.24000000	          0.46474107	          0.87613756	         -1.18272052	
          4.25000000	          0.49238575	          0.87117178	         -1.18610676	
          4.26000000	          0.51747566	          0.86160278	         -1.19014338	
          4.27000000	          0.53957171	          0.84752029	         -1.19502195	
          4.28000000	          0.55845806	          0.82931475	         -1.20082844	
          4.29000000	          0.57417768	          0.80765753	         -1.20754381	
          4.30000000	          0.58703503	          0.78344508	         -1.21505623	
          4.31000000	          0.59757585	          0.75772718	         -1.22318105	
          4.32000000	          0.60655023	          0.73162941	         -1.23168459	
          4.33000000	          0.61485212	          0.70626309	         -1.24031095	
          4.34000000	          0.62342634	          0.68261569	         -1.24881217	
          4.35000000	          0.63315048	          0.66143516	         -1.25697879	
          4.36000000	          0.64471986	          0.64314210	         -1.26466441	
          4.37000000	          0.65856602	          0.62779876	         -1.27179906	
          4.38000000	          0.67482800	          0.61514382	         -1.27839055	
          4.39000000	          0.69338075	          0.60468210	         -1.28451462	
          4.40000000	          0.71390629	          0.59580119	         -1.29029795	
          4.41000000	          0.73598243	          0.58788163	         -1.29589954	
          4.42000000	          0.75915401	          0.58036707	         -1.30149808	
          4.43000000	          0.78295825	          0.57277588	         -1.30729120	
          4.44000000	          0.80690800	          0.56467025	         -1.31350421	
          4.45000000	          0.83046684	          0.55562194	         -1.32039989	
          4.46000000	          0.85305451	          0.54520956	         -1.32827911	
          4.47000000	          0.87410214	          0.53305904	         -1.33746598	
          4.48000000	          0.89315327	          0.51891586	         -1.34827756	
          4.49000000	          0.90998279	          0.50272000	         -1.36098513	
          4.50000000	          0.92468666	          0.48464562	         -1.37578022	
          4.51000000	          0.93769990	          0.46508041	         -1.39275634	
          4.52000000	          0.94973709	          0.44455160	         -1.41190861	
          4.53000000	          0.96168325	          0.42362919	         -1.43314538	
          4.54000000	          0.97446977	          0.40283697	         -1.45630410	
          4.55000000	          0.98896037	          0.38259008	         -1.48116628	
          4.56000000	          1.00586671	          0.36316780	         -1.50746924	
          4.57000000	          1.02570060	          0.34471789	         -1.53491505	
          4.58000000	          1.04874684	          0.32727533	         -1.56317985	
          4.59000000	          1.07503528	          0.31077872	         -1.59192633	
          4.60000000	          1.10431416	          0.29508443	         -1.62081692	
          4.61000000	          1.13604816	          0.27998944	         -1.64952262	
          4.62000000	          1.16946096	          0.26526979	         -1.67772458	
          4.63000000	          1.20361528	          0.25072667	         -1.70511093	
          4.64000000	          1.23749803	          0.23622317	         -1.73137510	
          4.65000000	          1.27007783	          0.22169814	         -1.75621994	
          4.66000000	          1.30032959	          0.20715919	         -1.77936490	
          4.67000000	          1.32724673	          0.19266657	         -1.80054876	
          4.68000000	          1.34986035	          0.17831753	         -1.81952128	
          4.69000000	          1.36726530	          0.16423241	         -1.83602297	
          4.70000000	          1.37863756	          0.15053773	         -1.84975803	
          4.71000000	          1.38322781	          0.13734303	         -1.86036711	
          4.72000000	          1.38033264	          0.12471354	         -1.86740331	
          4.73000000	          1.36926150	          0.11264451	         -1.87031033	
          4.74000000	          1.34931581	          0.10104168	         -1.86840081	
          4.75000000	          1.31977850	          0.08970821	         -1.86083554	
          4.76000000	          1.27989838	          0.07833718	         -1.84660795	
          4.77000000	          1.22885950	          0.06651041	         -1.82453896	
          4.78000000	          1.16574095	          0.05370550	         -1.79328718	
          4.79000000	          1.08948546	          0.03931103	         -1.75138092	
          4.80000000	          0.99889543	          0.02264575	         -1.69728523	
          4.81000000	          0.89268644	          0.00297146	         -1.62952364	
          4.82000000	          0.76959770	         -0.02051942	         -1.54691881	
          4.83000000	          0.62871807	         -0.04874418	         -1.44898757	
          4.84000000	          0.46971274	         -0.08281819	         -1.33698116	
          4.85000000	          0.29440864	         -0.12346786	         -1.21554855	
          4.86000000	          0.10745665	         -0.17058473	         -1.10004570	
          4.87000000	         -0.07406245	         -0.21020397	         -1.03370485	
          4.88000000	         -0.08967517	         -0.24454322	         -1.01713581	
          4.89000000	          0.08003498	         -0.31402113	         -1.00853404	
          4.90000000	          0.19553842	         -0.40213198	         -1.05892641	
          4.91000000	          0.32317120	         -0.48562914	         -1.10149107	
